<?xml version="1.0" encoding="UTF-8" standalone="no"?>
<!DOCTYPE svg PUBLIC "-//W3C//DTD SVG 1.1//EN" "http://www.w3.org/Graphics/SVG/1.1/DTD/svg11.dtd">
<!-- Created with Vectornator (http://vectornator.io/) -->
<svg height="100%" stroke-miterlimit="10" style="fill-rule:nonzero;clip-rule:evenodd;stroke-linecap:round;stroke-linejoin:round;" version="1.1" viewBox="0 0 2048 2048" width="100%" xml:space="preserve" xmlns="http://www.w3.org/2000/svg" xmlns:vectornator="http://vectornator.io" xmlns:xlink="http://www.w3.org/1999/xlink">
<defs/>
<clipPath id="ArtboardFrame">
<rect height="2048" width="2048" x="0" y="0"/>
</clipPath>
<g clip-path="url(#ArtboardFrame)" id="Layer-1" vectornator:layerName="Layer 1">
<g opacity="1" vectornator:layerName="Group 1">
<path d="M1015.09 0.0232444C908.667 0.747446 792.669 11.0271 691.824 51.3653C372.436 179.12 129.788 454.461 35.7865 783.465C-70.1035 1154.08 64.6983 1574.06 364.756 1814.11C417.854 1856.59 515.12 1933.94 583.435 1951.02C638.736 1964.85 692.959 1993.99 748.87 2009.97C852.984 2039.72 960.361 2048 1068.33 2048C1174.45 2048 1287.72 2016.91 1385.89 1977.64C1845.53 1793.79 2108.19 1338.05 2019.11 848.118C2007.98 786.906 1998.66 721.87 1975.37 663.667C1849.88 349.938 1578.44 98.8009 1245.18 24.7435C1169.45 7.91573 1092.44-0.503132 1015.09 0.0232444Z" fill="#7f0404" fill-rule="nonzero" opacity="1" stroke="none"/>
<path d="M978.959 57.07C895.162 59.1728 815.204 73.1766 733.658 91.298C697.148 99.4113 657.925 105.932 625.269 125.526C378.588 273.535 212.776 468.395 108.046 730.221C83.0942 792.6 54.2032 870.201 50.999 937.491C47.1314 1018.71 56.1362 1094.38 71.9161 1173.28C87.2414 1249.91 117.324 1373.91 165.092 1437.6C180.029 1457.52 184.96 1484.09 203.124 1502.25C237.793 1536.92 281.73 1555.5 322.922 1580.22C474.173 1670.97 671.374 1700.02 843.948 1700.02C1119.66 1700.02 1349 1560.71 1526.61 1357.73C1590.66 1284.53 1636.64 1197.17 1686.34 1114.34C1714.19 1067.92 1727.05 1010.66 1747.19 960.309C1805.67 814.111 1838.74 641.973 1800.43 488.723C1788.88 442.511 1689.8 345.769 1661.62 317.583C1566.03 221.999 1446.93 166.674 1325.04 117.92C1281.39 100.458 1232.86 93.2153 1190.03 76.0855C1176.94 70.8508 1154.78 72.1544 1140.59 70.3808C1086.53 63.6235 1033.53 55.7004 978.959 57.07Z" fill="#fe0000" fill-rule="nonzero" opacity="1" stroke="none"/>
<path d="M1800.43 488.723C1798.53 490.625 1798.53 490.625 1796.63 492.526C1816.9 533.073 1814.11 601.495 1811.84 644.651C1804.64 781.434 1767.37 909.864 1716.76 1036.37C1681.93 1123.46 1631.89 1199.81 1579.85 1277.87C1394.32 1556.17 1128.01 1696.21 798.311 1696.21C711.642 1696.21 630.591 1682.81 547.305 1661.98C432.434 1633.27 307.062 1587.26 216.434 1507.96C202.334 1522.06 255.744 1582.77 265.875 1595.43C301.727 1640.24 340.962 1680.02 381.87 1720.93C490.523 1829.59 682.713 1927.17 836.342 1949.12C1013.15 1974.38 1173.12 1959.83 1336.45 1905.38C1383.85 1889.58 1441.05 1872.57 1480.97 1842.63C1510.65 1820.37 1544.97 1803.22 1574.15 1779.88C1661.77 1709.78 1743.62 1632.15 1806.14 1538.38C2010.31 1232.12 2025.67 789.045 1800.43 488.723Z" fill="#cc0000" fill-rule="nonzero" opacity="1" stroke="none"/>
<path d="M716.544 270.044C578.455 286.23 476.172 424.108 427.507 545.77C394.449 628.415 413.285 737.827 516.88 737.827C648.309 737.827 781.815 649.96 847.751 540.065C897.364 457.378 900.324 338.858 807.819 283.355C780.763 267.122 746.229 266.565 716.544 270.044Z" fill="#fefefe" fill-rule="nonzero" opacity="1" stroke="none"/>
<path d="M364.756 798.677C301.252 798.66 307.087 888.141 313.414 935.589C316.046 955.331 317.555 995.833 347.642 998.341C389.306 1001.81 396.024 970.033 410.393 941.294C438.365 885.349 440.732 798.697 364.756 798.677Z" fill="#fefefe" fill-rule="nonzero" opacity="1" stroke="none"/>
</g>
</g>
</svg>
