<?xml version="1.0" encoding="UTF-8" standalone="no"?>
<!DOCTYPE svg PUBLIC "-//W3C//DTD SVG 1.1//EN" "http://www.w3.org/Graphics/SVG/1.1/DTD/svg11.dtd">
<!-- Created with Vectornator (http://vectornator.io/) -->
<svg height="100%" stroke-miterlimit="10" style="fill-rule:nonzero;clip-rule:evenodd;stroke-linecap:round;stroke-linejoin:round;" version="1.1" viewBox="0 0 2048 2048" width="100%" xml:space="preserve" xmlns="http://www.w3.org/2000/svg" xmlns:vectornator="http://vectornator.io" xmlns:xlink="http://www.w3.org/1999/xlink">
<defs/>
<g id="Layer-1" vectornator:layerName="Layer 1">
<g opacity="1" vectornator:layerName="Group 1">
<path d="M1008 2C905.456 5.93433 796.168 13.1327 699 52C648.931 72.0276 601.526 96.2372 554 120C533.297 130.352 516.144 145.928 496 156C477.78 165.11 462.719 181.875 445 192C429.144 201.061 413.114 217.546 399 230C363.62 261.217 329.356 293.622 297 328C158.464 475.195 50.1791 677.746 21 882C8.77962 967.543 8.78669 1050.98 14 1137C19.8334 1233.25 43.3012 1326.75 79 1416C87.767 1437.92 99.2634 1472.68 113 1491C134.837 1520.12 150.353 1558.57 170 1590C200.57 1638.91 241.465 1686.44 282 1729C486.807 1944.05 779.268 2050.63 1077 2043C1189.71 2040.11 1302.92 2007.63 1407 1966C1431.77 1956.09 1460.88 1946.27 1483 1933C1510.71 1916.37 1545.43 1902.43 1570 1884C1588.37 1870.22 1607.58 1855.21 1628 1845C1636.41 1840.79 1643.93 1830.38 1652 1825C1683.4 1804.06 1711.79 1773.76 1740 1748C1773.82 1717.12 1804.77 1680.3 1833 1644C1847.83 1624.93 1859.19 1601.51 1874 1583C1886.67 1567.16 1897.65 1549.38 1905 1531C1911.32 1515.21 1924.42 1498.16 1932 1483C1957.75 1431.5 1986.84 1372.6 2002 1317C2035.03 1195.88 2045.81 1057.95 2034 934C2030.92 901.644 2022.93 870.026 2018 838C1981.57 601.206 1859.8 389.442 1673 240C1636.56 210.848 1600.32 176.66 1559 156C1540.6 146.8 1522.39 127.097 1502 122C1486.96 118.239 1473.36 102.091 1457 98C1426.47 90.3676 1394.53 72.8114 1365 61C1252.73 16.0938 1127.77-2.59509 1008 2Z" fill="#005500" fill-rule="nonzero" opacity="1" stroke="none"/>
<path d="M996 58C910.736 59.8081 828.926 72.572 746 91C713.066 98.3188 677.409 102.795 647 118C399.202 241.899 217.105 470.736 117 721C96.5242 772.189 79.9612 826.175 68 880C64.1769 897.204 57.4495 916.246 57 934C55.0188 1012.26 60.1169 1087.03 77 1163C95.7104 1247.2 118.483 1329.97 157 1407C168.739 1430.48 183.311 1453.62 195 1477C198.686 1484.37 200.293 1492.83 208 1499C378.66 1635.53 611.092 1696 841 1696C914.214 1696 985.885 1682.8 1057 1667C1083.19 1661.18 1118.61 1656.04 1142 1642C1158.83 1631.9 1177.76 1629.34 1195 1619C1221.2 1603.28 1251.73 1589.63 1279 1576C1293.42 1568.79 1307.97 1554.42 1321 1544C1355.93 1516.06 1390.94 1491.62 1424 1461C1468.14 1420.13 1525.68 1371.32 1559 1318C1583.39 1278.97 1613.93 1242.11 1638 1202C1661.5 1162.83 1681.57 1122.38 1704 1082C1706.17 1078.1 1707.08 1069.8 1709 1065C1722.8 1030.51 1734.24 996.395 1748 962C1807.71 812.715 1839.04 639.179 1800 483C1796.6 469.398 1779.2 452.94 1771 442C1736.74 396.317 1699.57 354.567 1659 314C1571.92 226.923 1458.05 170.219 1345 125C1296.26 105.504 1239.64 100.822 1194 78C1180.69 71.3473 1156.75 72.7353 1142 71C1093.23 65.2623 1045.28 56.955 996 58Z" fill="#00ae00" fill-rule="nonzero" opacity="1" stroke="none"/>
<path d="M1805 488C1795.21 497.79 1805.69 520.278 1808 533C1816.17 577.94 1816.62 622.542 1815 668C1810.98 780.657 1770.88 884.366 1736 989C1727.22 1015.34 1717.47 1056.8 1702 1080C1685.3 1105.05 1675.59 1135.02 1660 1161C1628.42 1213.63 1592.85 1267.81 1557 1318C1524.09 1364.08 1478.34 1406.66 1439 1446C1257.46 1627.54 1030.43 1700.86 767 1693C670.693 1690.13 575.421 1669.41 483 1643C466.949 1638.41 452.632 1630.85 438 1625C419.333 1617.53 394.739 1612.16 378 1601C369.234 1595.16 356.209 1586.54 346 1582C326.78 1573.46 310.973 1562.49 292 1553C287.232 1550.62 278.922 1549.28 274 1546C261.396 1537.6 245.844 1528.36 234 1518C227.789 1512.57 223.382 1504.69 216 1501C206.618 1510.38 220.174 1521.76 225 1529C239.335 1550.5 255.336 1572.17 272 1593C318.046 1650.56 368.628 1706.6 427 1752C446.963 1767.53 466.994 1786.43 489 1799C494.598 1802.2 507.857 1807.57 510 1814C525.2 1814 554.767 1842.91 571 1849C592.482 1857.06 612.997 1869 634 1878C637.988 1879.71 641.519 1884.51 646 1886C676.554 1896.18 709.722 1909.24 742 1920C796.876 1938.29 855.396 1947.34 912 1953C1056.34 1967.43 1212.39 1956.45 1351 1901C1470.58 1853.17 1580.81 1787.19 1678 1690C1713.77 1654.23 1747.67 1616.44 1778 1576C1784.17 1567.78 1807.43 1528.52 1815 1526C1815 1517.89 1822.99 1512.02 1827 1505C1836.69 1488.04 1844.87 1473.69 1856 1457C1860.79 1449.82 1864.93 1437.2 1868 1428C1871.44 1417.68 1880.93 1408.18 1885 1398C1886.55 1394.13 1885.4 1387.26 1887 1383C1900.57 1346.8 1919.24 1305.67 1930 1268C1931.1 1264.15 1929.03 1259.88 1930 1256C1936.6 1229.59 1947.79 1202.06 1953 1176C1964.62 1117.89 1969 1056.98 1969 998C1969 975.262 1965 954.679 1965 932C1965 907.892 1963.21 880.286 1959 855C1951.9 812.379 1937.68 770.197 1922 731C1918.65 722.627 1924.79 727.627 1921 721C1915.84 711.969 1908.6 696.9 1905 687C1901.94 678.589 1902.57 668.226 1898 660C1882.93 632.872 1868.93 600.867 1854 571C1850.6 564.196 1848.37 553.008 1844 547C1829.33 526.831 1818.55 508.332 1805 488Z" fill="#007a00" fill-rule="nonzero" opacity="1" stroke="none"/>
<path d="M717 272C696.24 273.274 682.447 289.388 664 294C621.988 304.503 589.405 330.921 558 360C503.915 410.079 461.87 473.826 435 541C420.632 576.921 421 608.541 421 649C421 709.37 471.104 735 524 735C535.764 735 548.097 728.85 560 728C684.978 719.073 793.303 633.495 856 529C890.843 470.929 897.683 397.804 863 340C850.109 318.515 833.271 292.708 809 283C778.328 270.731 752.777 269.805 717 272Z" fill="#fdfefc" fill-rule="nonzero" opacity="1" stroke="none"/>
<path d="M365 800C322.837 808.02 314 859.797 314 898C314 912.016 320.094 923.86 321 937C323.286 970.151 327.811 996 368 996C383.64 996 406.167 973.165 409 959C410.121 953.396 409.275 945.966 413 941C429.579 918.894 439.594 884.969 434 857C431.374 843.87 421.715 836.787 417 825C413.69 816.726 403.226 805.556 393 803C383.724 800.681 375.082 798.082 365 800Z" fill="#fdfefc" fill-rule="nonzero" opacity="1" stroke="none"/>
</g>
</g>
</svg>
