<?xml version="1.0" encoding="UTF-8" standalone="no"?>
<!DOCTYPE svg PUBLIC "-//W3C//DTD SVG 1.1//EN" "http://www.w3.org/Graphics/SVG/1.1/DTD/svg11.dtd">
<!-- Created with Vectornator (http://vectornator.io/) -->
<svg height="100%" stroke-miterlimit="10" style="fill-rule:nonzero;clip-rule:evenodd;stroke-linecap:round;stroke-linejoin:round;" version="1.1" viewBox="0 0 2048 2048" width="100%" xml:space="preserve" xmlns="http://www.w3.org/2000/svg" xmlns:vectornator="http://vectornator.io" xmlns:xlink="http://www.w3.org/1999/xlink">
<defs/>
<g id="Layer-1" vectornator:layerName="Layer 1">
<g opacity="1" vectornator:layerName="Group 1">
<path d="M1026 1C969.033 0.680266 912.864 6.01456 857 12C844.976 13.2883 829.169 20.5661 817 23C795.26 27.348 774.56 32.61 753 38C736.605 42.0986 719.32 43.0056 703 50C643.673 75.4259 588.065 104.968 532 133C516.979 140.511 502.11 152.594 488 162C425.019 203.987 369.578 254.422 316 308C86.5551 537.445-28.2485 865.261 18 1189C32.3276 1289.29 65.6613 1384.54 104 1474C125.958 1525.23 161.958 1579.28 197 1626C400.481 1897.31 702.524 2044 1042 2044C1312.09 2044 1601.85 1905.99 1779 1708C1813.79 1669.12 1853.59 1624.81 1877 1578C1886.41 1559.18 1904.39 1543.84 1911 1524C1913.47 1516.59 1918.1 1510.83 1922 1504C1931.27 1487.78 1937.13 1465.44 1947 1449C1975.75 1401.08 1999.3 1330.17 2012 1273C2054.73 1080.71 2041.52 875.393 1985 687C1972.17 644.24 1951.87 600.734 1932 561C1925.49 547.987 1914.71 535.271 1909 521C1903.36 506.89 1892.71 488.138 1883 476C1866.88 455.855 1854.59 431.781 1839 411C1814.61 378.478 1786.86 348.548 1759 319C1630 182.183 1464.61 84.8873 1290 35C1204.46 10.5603 1113.33 1.49017 1026 1Z" fill="#700f41" fill-rule="nonzero" opacity="1" stroke="none"/>
<path d="M995 58C975.997 57.8942 956.075 64.3791 939 65C912.254 65.9726 893.153 63.7796 869 67C820.206 73.5059 773.527 88.3587 726 97C703.555 101.081 678.266 101.84 658 114C623.222 134.867 582.856 151.763 548 175C491.727 212.516 435.742 258.258 388 306C280.626 413.374 202.597 536.806 138 666C123.659 694.682 112.594 727.921 104 758C97.7603 779.839 86.5398 803.841 81 826C75.2053 849.179 71.1181 876.273 64 900C61.2394 909.202 57.2689 922.781 57 933C56.351 957.66 56 982.331 56 1007C56 1048.65 62.5499 1093.02 70 1134C72.4349 1147.39 79.6315 1160.68 81 1173C82.3379 1185.04 80.833 1188.25 83 1198C86.7804 1215.01 97.0821 1234.49 100 1252C106.596 1291.58 124.044 1331.1 140 1367C147.938 1384.86 152.865 1407.82 165 1424C181.731 1446.31 187.224 1477.22 208 1498C234.574 1524.57 268.097 1545.05 300 1561C320.114 1571.06 341.1 1583.66 360 1595C366.177 1598.71 377.669 1602.07 385 1605C409.929 1614.97 434.043 1627.02 459 1637C485.612 1647.64 515.234 1652.06 543 1659C643.691 1684.17 744.236 1699.58 848 1696C1081.37 1687.95 1271.58 1609.76 1437 1449C1455.76 1430.77 1474.5 1412.5 1493 1394C1514.61 1372.39 1542.55 1346.04 1558 1319C1569.27 1299.28 1585.66 1280.74 1598 1261C1618.37 1228.4 1637.65 1197.25 1657 1165C1666.44 1149.26 1679.49 1132.89 1687 1116C1712.12 1059.48 1731.35 1001.12 1755 942C1798.88 832.3 1818 710.563 1818 593C1818 557.079 1810.29 514.883 1799 481C1793.81 465.444 1775.83 448.761 1766 435C1734.76 391.259 1696.89 351.888 1659 314C1614.33 269.329 1554.94 225.968 1499 198C1460.92 178.958 1422.24 154.695 1383 139C1337.76 120.904 1287.34 105.741 1239 95C1230.41 93.0912 1215.47 90.2362 1207 86C1202.93 83.9655 1198.55 79.1387 1194 78C1171.91 72.477 1147.64 71.8297 1125 69C1081.6 63.5753 1038.9 58.2444 995 58Z" fill="#e61f87" fill-rule="nonzero" opacity="1" stroke="none"/>
<path d="M1801 487C1797.29 490.714 1809.7 540.286 1811 550C1815.73 585.488 1816 621.163 1816 657C1816 754.746 1783.5 852.505 1753 944C1744.2 970.396 1733 995.988 1723 1021C1720.37 1027.59 1721.63 1036.51 1717 1043C1711.66 1050.47 1701.6 1073.41 1700 1083C1696.99 1101.06 1676.47 1129.06 1668 1146C1662.4 1157.2 1652.11 1166.5 1647 1178C1625.86 1225.57 1586.49 1273.26 1556 1319C1525.09 1365.36 1476.01 1408.99 1438 1447C1398.41 1486.59 1352.65 1519.11 1308 1551C1271.44 1577.11 1234.83 1600.27 1193 1617C1182.88 1621.05 1172.46 1629.08 1162 1633C1004.48 1692.07 825.539 1707.65 660 1684C620.758 1678.39 582.379 1667.59 544 1658C508.463 1649.12 473.032 1641.61 439 1628C409.188 1616.08 377.679 1594.42 348 1587C334.542 1583.64 314.276 1564.9 301 1559C270.882 1545.61 238.457 1525.59 215 1500C206.21 1505.86 216.297 1515.83 220 1522C232.475 1542.79 246.846 1562.06 262 1581C297.431 1625.29 334.578 1665.58 375 1706C499.236 1830.24 681.324 1919.97 857 1947C990.014 1967.46 1124.49 1961.38 1254 1929C1278.98 1922.75 1303.99 1917.6 1328 1908C1334.04 1905.58 1343.18 1906.69 1349 1904C1354.7 1901.37 1358.99 1894.5 1365 1893C1384.5 1888.12 1402.58 1879.21 1421 1870C1432.62 1864.19 1448.03 1860.32 1459 1853C1482.19 1837.54 1506.53 1821.73 1532 1809C1537.89 1806.05 1542.21 1799.31 1548 1796C1566.85 1785.23 1584.39 1770.09 1602 1756C1663.95 1706.44 1719.43 1650.45 1768 1588C1906.83 1409.51 1978.71 1174.77 1966 946C1964.32 915.692 1964.09 885.533 1959 855C1950.01 801.043 1930.73 748.331 1911 699C1902.16 676.902 1896.75 656.582 1885 637C1883.49 634.484 1884.39 628.776 1883 626C1878.45 616.903 1874.5 609.326 1871 600C1868.27 592.708 1860.01 586.058 1858 578C1855.36 567.46 1845.97 556.937 1841 547C1830.42 525.843 1817.46 506.278 1801 487Z" fill="#a1155e" fill-rule="nonzero" opacity="1" stroke="none"/>
<path d="M716 272C696.205 274.284 682.045 284.977 666 293C641.024 305.488 619.295 309.529 596 327C529.189 377.108 461.312 461.063 435 540C415.888 597.336 402.797 712.949 483 733C496.597 736.399 510.984 735 525 735C533.322 735 541.264 731.694 548 729C554.673 726.331 572.519 727.499 579 727C597.549 725.573 616.627 720.678 633 716C725.166 689.667 833.861 591.848 869 504C881.279 473.303 888 446.196 888 412C888 361.15 842.77 292.257 794 276C788.375 274.125 781.437 273.201 775 273C755.34 272.386 735.54 269.746 716 272Z" fill="#fefdfe" fill-rule="nonzero" opacity="1" stroke="none"/>
<path d="M365 800C320.499 808.58 314 861.964 314 901C314 914.073 321.183 926.561 322 938C322.617 946.645 321.383 955.355 322 964C323.455 984.369 349.845 996 368 996C383.727 996 402.84 974.899 408 962C410.806 954.985 410.455 947.09 414 940C418.965 930.069 426.958 921.649 430 911C438.402 881.593 433.951 813.238 393 803C383.724 800.681 375.077 798.057 365 800Z" fill="#fefdfe" fill-rule="nonzero" opacity="1" stroke="none"/>
</g>
</g>
</svg>
