<?xml version="1.0" encoding="UTF-8" standalone="no"?>
<!DOCTYPE svg PUBLIC "-//W3C//DTD SVG 1.1//EN" "http://www.w3.org/Graphics/SVG/1.1/DTD/svg11.dtd">
<!-- Created with Vectornator (http://vectornator.io/) -->
<svg height="100%" stroke-miterlimit="10" style="fill-rule:nonzero;clip-rule:evenodd;stroke-linecap:round;stroke-linejoin:round;" version="1.1" viewBox="0 0 2048 2048" width="100%" xml:space="preserve" xmlns="http://www.w3.org/2000/svg" xmlns:vectornator="http://vectornator.io" xmlns:xlink="http://www.w3.org/1999/xlink">
<defs/>
<g id="Layer-1" vectornator:layerName="Layer 1">
<g opacity="1" vectornator:layerName="Group 1">
<path d="M1009 2C958.202 2.79577 905.05 6.14613 854 14C804.506 21.6145 757.823 36.0442 710 48C694.865 51.7839 680.095 60.4525 667 67C629.551 85.7245 590.187 101.907 554 120C465.222 164.389 384.841 239.159 316 308C200.602 423.398 112.071 567.788 62 718C47.9061 760.282 38.308 806.922 26 850C19.2525 873.616 18.4452 901.548 16 926C8.92904 996.71 9.27346 1065.1 14 1136C16.0464 1166.7 22.3436 1196.75 26 1226C27.2692 1236.15 25.6967 1244.02 28 1254C32.9127 1275.29 41.4433 1298.66 45 1320C48.0373 1338.22 61.6298 1358.33 66 1378C69.8229 1395.2 76.7947 1415.59 85 1432C123.885 1509.77 165.657 1587.27 223 1661C428.221 1924.86 748.809 2050.13 1077 2043C1125.3 2041.95 1172.38 2031.78 1218 2022C1228.44 2019.76 1240.5 2021.23 1251 2018C1369.24 1981.62 1481.88 1942.75 1585 1874C1778.06 1745.29 1925.34 1546.98 1996 1335C2012.11 1286.67 2021.26 1231.65 2027 1180C2039.37 1068.65 2039.97 959.861 2020 850C2014.15 817.839 2005.94 785.699 2000 756C1995.23 732.169 1992.54 705.257 1983 683C1970.44 653.691 1963.93 619.21 1947 591C1937.1 574.508 1931.21 556.355 1922 541C1895.56 496.934 1870.2 452.593 1839 411C1699.67 225.224 1487.8 83.95 1268 29C1184.96 8.23989 1095.64 0.642687 1009 2Z" fill="#5b106d" fill-rule="nonzero" opacity="1" stroke="none"/>
<path d="M996 58C973.081 57.8537 950.134 64.0607 929 65C906.43 66.0031 889.772 64.2304 869 67C818.973 73.6703 773.8 87.24 725 97C699.163 102.167 669.269 104.839 644 120C552.693 174.784 466.53 227.47 388 306C216.904 477.096 103.993 692.033 58 922C52.4418 949.791 56 978.659 56 1007C56 1048.96 61.8801 1093.4 70 1134C72.0628 1144.31 77.2428 1154.34 79 1164C94.713 1250.42 121.012 1335.02 161 1415C174.378 1441.76 185.813 1475.81 208 1498C228.401 1518.4 259.036 1542.02 285 1555C298.213 1561.61 316.042 1567.9 329 1576C472.299 1665.56 676.621 1696 846 1696C974.781 1696 1105.61 1662.69 1219 1606C1235.08 1597.96 1255.13 1591.62 1270 1581C1347.67 1525.52 1421.86 1465.14 1492 1395C1512.61 1374.39 1532.1 1352.02 1550 1329C1583.97 1285.32 1620.93 1233.14 1645 1185C1649.77 1175.46 1658.18 1165.73 1664 1157C1672.4 1144.4 1678.17 1127.66 1685 1114C1689.91 1104.19 1699.22 1094.12 1702 1083C1706.24 1066.03 1716.7 1040.51 1726 1025C1735.68 1008.87 1738.92 985.701 1746 968C1806.78 816.043 1839.02 641.088 1799 481C1795.52 467.076 1777.52 450.364 1769 439C1735.57 394.428 1698.54 353.536 1659 314C1593.37 248.373 1504 191.2 1421 158C1394.37 147.348 1368.18 131.393 1340 122C1313.13 113.042 1283.3 102.26 1257 97C1235.2 92.6401 1213.5 87.7522 1194 78C1180.75 71.3728 1156.79 72.8483 1142 71C1092.28 64.7849 1047.56 58.3292 996 58Z" fill="#bc23e2" fill-rule="nonzero" opacity="1" stroke="none"/>
<path d="M1801 486C1796.18 490.819 1801.64 502.867 1803 509C1808.15 532.16 1812.03 555.315 1814 579C1820.01 651.123 1812.68 724.42 1797 795C1783.21 857.033 1762.03 916.899 1742 977C1736.35 993.963 1726.41 1010.77 1721 1027C1707.68 1066.96 1688.53 1100.93 1670 1138C1667.18 1143.64 1665.57 1151.65 1662 1157C1639.12 1191.32 1618.08 1224.88 1594 1261C1575.55 1288.67 1558.83 1315.8 1537 1342C1505.38 1379.94 1469.78 1415.22 1435 1450C1397.27 1487.73 1352.75 1521.83 1309 1551C1288.94 1564.38 1269.6 1582.36 1248 1591C1200.27 1610.09 1154.39 1638.03 1102 1653C959.427 1693.74 806.658 1706.56 660 1684C612.073 1676.63 564.913 1663.73 518 1652C449.675 1634.92 386.732 1606.99 329 1574C315.793 1566.45 297.566 1561.38 285 1553C266.854 1540.9 241.926 1527.93 226 1512C221.354 1507.35 214.142 1492.57 206 1498C244.052 1574.1 314.125 1645.12 374 1705C639.866 1970.87 1068.56 2024.33 1410 1878C1450 1860.86 1486.19 1834.04 1523 1813C1558.49 1792.72 1592.21 1764.49 1624 1738C1740.23 1641.15 1835.37 1516.57 1890 1380C1927.41 1286.46 1952.24 1186.99 1964 1087C1968.59 1048.02 1974.62 1004.08 1967 966C1964.88 955.402 1967.05 941.05 1966 930C1963.46 903.293 1963.33 875.654 1958 849C1948.76 802.78 1937.17 748.342 1916 706C1912.75 699.508 1907.57 691.86 1905 685C1885.04 631.771 1861.48 583.849 1833 534C1825.6 521.051 1815.1 493.052 1801 486Z" fill="#83189e" fill-rule="nonzero" opacity="1" stroke="none"/>
<path d="M717 272C696.618 273.417 682.315 289.421 664 294C622.735 304.316 590.122 330.584 559 359C505.612 407.746 460.678 474.305 434 541C420.356 575.11 421 612.41 421 649C421 707.698 471.294 736.647 524 735C536.511 734.609 549.06 728.194 561 727C579.847 725.115 600.718 726.856 619 720C715.537 683.798 799.603 622.994 856 529C892.589 468.018 897.63 397.383 862 338C849.373 316.955 832.445 292.378 809 283C777.964 270.586 754.501 269.392 717 272Z" fill="#fefdfe" fill-rule="nonzero" opacity="1" stroke="none"/>
<path d="M365 800C316.915 802.759 310.784 871.952 315 912C315.886 920.415 321.457 930.669 322 938C324.696 974.395 327.417 996.899 373 995C380.253 994.698 392.491 981.509 396 978C408.428 965.572 404.153 956.078 412 943C444.469 888.885 446.797 795.307 365 800Z" fill="#fefdfe" fill-rule="nonzero" opacity="1" stroke="none"/>
</g>
</g>
</svg>
