<?xml version="1.0" encoding="UTF-8" standalone="no"?>
<!DOCTYPE svg PUBLIC "-//W3C//DTD SVG 1.1//EN" "http://www.w3.org/Graphics/SVG/1.1/DTD/svg11.dtd">
<!-- Created with Vectornator (http://vectornator.io/) -->
<svg height="100%" stroke-miterlimit="10" style="fill-rule:nonzero;clip-rule:evenodd;stroke-linecap:round;stroke-linejoin:round;" version="1.1" viewBox="0 0 2048 2048" width="100%" xml:space="preserve" xmlns="http://www.w3.org/2000/svg" xmlns:vectornator="http://vectornator.io" xmlns:xlink="http://www.w3.org/1999/xlink">
<defs/>
<g id="Layer-1" vectornator:layerName="Layer 1">
<g opacity="1" vectornator:layerName="Group 1">
<path d="M1028 1C922.993 0.979711 814.796 12.7348 715 46C660.123 64.2923 604.4 94.7999 554 120C465.251 164.375 384.234 239.766 315 309C167.104 456.896 57.4806 662.117 23 869C8.19817 957.811 8.40427 1046.47 14 1136C18.4928 1207.88 33.3218 1275.13 53 1344C59.068 1365.24 66.815 1386.54 75 1407C77.3195 1412.8 83.4199 1420.68 85 1427C91.4579 1452.83 111.987 1495.48 127 1518C144.821 1544.73 159.779 1573.67 178 1601C204.622 1640.93 236.573 1679.63 269 1715C416.896 1876.34 604.765 1974.06 816 2021C856.336 2029.96 897.811 2036.95 939 2040C964.429 2041.88 998.19 2038.3 1021 2044C1046.15 2050.29 1088.48 2042.62 1116 2040C1211.77 2030.88 1308.29 2006.59 1396 1969C1429.62 1954.59 1464.06 1944.17 1496 1925C1519.52 1910.89 1546.94 1899.04 1568 1885C1580.97 1876.35 1593.2 1865.9 1607 1859C1622.41 1851.29 1637.36 1836.61 1651 1826C1693.08 1793.27 1731.26 1756.74 1769 1719C1809.96 1678.04 1841.64 1629.7 1875 1583C1883.39 1571.25 1888.99 1556.22 1897 1545C1917.29 1516.6 1928.43 1479.95 1947 1449C1984.37 1386.71 2010.85 1294.5 2022 1222C2034.72 1139.34 2037 1057.99 2037 974C2037 928.397 2025.44 883.618 2018 839C1978.49 601.968 1875.92 419.873 1695 258C1642.21 210.77 1581.62 163.812 1520 133C1500.44 123.221 1481.06 106.019 1460 99C1421.06 86.0198 1382.25 69.6984 1343 54C1336.09 51.2341 1326.68 45.6708 1320 44C1223.35 19.8379 1128.81 1.01948 1028 1Z" fill="#757200" fill-rule="nonzero" opacity="1" stroke="none"/>
<path d="M995 58C953.26 59.9876 910.4 61.48 869 67C837.796 71.1605 806.929 79.3765 776 85C747.211 90.2344 714.551 93.8163 687 103C577.79 139.403 465.054 229.946 383 312C331.625 363.375 284.314 418.529 244 479C213.917 524.125 186.525 568.95 163 616C152.728 636.544 136.757 659.97 131 683C124.98 707.081 112.888 729.335 105 753C90.656 796.032 77.871 835.581 68 880C64.0549 897.753 57.462 915.288 57 934C54.7457 1025.3 62.8979 1114.59 85 1203C93.8388 1238.36 107.069 1272.24 117 1307C124.417 1332.96 133.478 1369.97 150 1392C156.26 1400.35 157.437 1412.73 163 1422C177.507 1446.18 187.425 1479.48 210 1500C247.152 1533.77 293.313 1558.66 336 1580C367.459 1595.73 400.87 1616.58 434 1629C501.447 1654.29 586.707 1673.88 659 1685C720.905 1694.52 784.576 1696 847 1696C936.314 1696 1052.34 1677.87 1137 1644C1163.74 1633.3 1190.38 1624.77 1215 1610C1226.21 1603.28 1238.33 1595.59 1250 1593C1252.54 1592.44 1252.83 1588.44 1255 1587C1257.17 1585.55 1262.38 1585.87 1265 1584C1279.92 1573.34 1296.05 1560.12 1312 1551C1374.85 1515.08 1441.9 1448.27 1491 1396C1549.09 1334.16 1588.9 1268.94 1636 1203C1648.44 1185.59 1656.94 1167.44 1668 1149C1671.5 1143.17 1672.05 1133.32 1679 1131C1679 1119.19 1697.77 1091.45 1704 1079C1721.5 1044 1731.36 1005.59 1746 969C1793.26 850.861 1827.26 708.241 1817 580C1814.35 546.832 1807.8 511.785 1799 481C1795.04 467.157 1777.65 451.106 1769 439C1736.74 393.841 1698.15 353.152 1659 314C1629.36 284.36 1593.26 258.842 1559 236C1452.54 165.025 1344 117 1218 89C1208.38 86.8625 1202.42 81.37 1194 78C1179.21 72.0846 1157.84 72.9798 1142 71C1105.17 66.3968 1066.08 59 995 58Z" fill="#fffb35" fill-rule="nonzero" opacity="1" stroke="none"/>
<path d="M1803 487C1796.09 493.913 1803.08 508.343 1805 517C1810.54 541.918 1813.41 567.566 1815 593C1820.49 680.782 1806.09 769.693 1782 854C1709.95 1106.19 1586.31 1329.56 1378 1500C1340.15 1530.97 1303.52 1555.65 1264 1582C1256.07 1587.28 1246.25 1588.17 1239 1593C1216.2 1608.2 1190.55 1617.58 1167 1627C1008.8 1690.28 830.442 1710.22 660 1684C609.448 1676.22 559.569 1662.39 510 1650C434.375 1631.09 365.404 1593.2 299 1560C274.554 1547.78 250.264 1530.54 229 1514C223.592 1509.79 215.122 1492.88 208 1500C212.945 1509.89 220.718 1534.24 232 1538C232 1546.66 247.443 1559.03 252 1567C268.598 1596.05 296.439 1625.69 320 1650C337.881 1668.45 355.833 1686.83 374 1705C538.056 1869.06 764.397 1950.98 997 1959C1259.77 1968.06 1489.88 1868.36 1674 1693C1734.92 1634.98 1787.06 1568.24 1828 1500C1842.92 1475.13 1863.52 1448.71 1875 1420C1907.3 1339.25 1933.87 1255.09 1953 1169C1961.23 1131.96 1958.98 1092.08 1968 1056C1969.88 1048.48 1967.79 1039.92 1968 1032C1968.92 997.14 1965 962.343 1965 928C1965 858.611 1945.32 783.123 1922 719C1920.54 714.98 1914.63 711.91 1913 708C1908.22 696.526 1906.02 681.062 1903 669C1902.14 665.562 1897.4 664.257 1896 661C1894.07 656.494 1894.24 649.476 1892 645C1890.14 641.288 1886.11 639.441 1885 635C1883.16 627.653 1879.68 619.157 1877 612C1875.48 607.956 1869.81 604.863 1869 600C1867.51 591.078 1859.03 583.086 1856 574C1846.37 545.116 1822.29 511.113 1803 487Z" fill="#ceca02" fill-rule="nonzero" opacity="1" stroke="none"/>
<path d="M717 272C695.756 274.067 681.472 290.132 662 295C612.042 307.489 574.313 343.687 538 380C494.425 423.575 453.592 485.223 434 544C421.809 580.572 421 605.151 421 648C421 707.884 469.648 735 523 735C534.698 735 546.277 728.837 558 728C683.568 719.031 792.023 635.629 856 529C896.231 461.948 897.862 387.207 852 323C841.092 307.729 821.035 284.259 800 279C790.611 276.653 782.854 273.318 773 273C754.34 272.398 735.582 270.192 717 272Z" fill="#fcfefe" fill-rule="nonzero" opacity="1" stroke="none"/>
<path d="M365 800C318.092 810.248 311.416 871.577 315 911C315.802 919.823 320.316 928.451 321 937C323.542 968.773 330.169 996 368 996C383.99 996 406.069 973.655 409 959C410.121 953.396 409.275 945.966 413 941C429.876 918.499 439.563 884.813 434 857C431.545 844.727 423.277 835.461 417 825C411.616 816.027 403.417 806.767 394 803C386.602 800.041 370.301 798.842 365 800Z" fill="#fcfefe" fill-rule="nonzero" opacity="1" stroke="none"/>
</g>
</g>
</svg>
